<svg data-v-fde0c5aa="" xmlns="http://www.w3.org/2000/svg" viewBox="0 0 300 300" class="font"><!----><defs data-v-fde0c5aa=""><!----></defs><rect data-v-fde0c5aa="" fill="#374729" x="0" y="0" width="300px" height="300px" class="logo-background-square"></rect><defs data-v-fde0c5aa=""><!----></defs><g data-v-fde0c5aa="" id="021f4559-3893-4a0a-a68c-fd553ab69006" transform="matrix(2.449888558168524,0,0,2.449888558168524,37.40311826852511,127.87750580573115)"><path d="M6.65 3.88L1.06 3.88L1.06 14.55L2.39 14.55L2.39 9.74L6.03 9.74L6.03 8.57L2.39 8.57L2.39 5.05L6.65 5.05ZM9.45 6.24L8.16 6.24L8.16 14.55L9.45 14.55ZM9.46 3.35L8.15 3.35L8.15 4.70L9.46 4.70ZM13.86 13.54C12.98 13.54 12.61 13.22 12.61 12.00L12.61 7.66L14.52 7.66L14.52 6.52L12.63 6.52L12.63 4.58L11.31 4.58L11.31 11.96C11.31 13.83 11.86 14.71 13.58 14.71C13.96 14.71 14.35 14.66 14.52 14.62L14.52 13.47C14.34 13.51 14.10 13.54 13.86 13.54ZM16.14 6.24L16.14 14.55L17.43 14.55L17.43 8.89C17.43 7.77 18.07 7.21 19.04 7.21C20.24 7.21 20.61 7.81 20.61 9.17L20.61 14.55L21.90 14.55L21.90 9.06C21.90 7.11 21.24 6.08 19.31 6.08C18.42 6.08 17.74 6.36 17.33 6.87L17.26 6.24ZM28.03 12.22C28 13.17 27.61 13.61 26.47 13.61C25.27 13.61 24.85 13.03 24.85 11.63L24.85 10.71L29.30 10.71L29.30 9.17C29.30 7.04 28.42 6.08 26.46 6.08C24.53 6.08 23.58 7.08 23.58 9.24L23.58 11.54C23.58 13.82 24.49 14.71 26.49 14.71C28.41 14.71 29.19 13.87 29.23 12.22ZM26.47 7.20C27.69 7.20 28.07 7.87 28.07 9.23L28.07 9.69L24.85 9.69L24.85 9.30C24.85 7.80 25.27 7.20 26.47 7.20ZM33.61 9.67C32.51 9.48 32.05 9.23 32.05 8.32C32.05 7.62 32.48 7.18 33.52 7.18C34.62 7.18 35.03 7.63 35.06 8.47L36.26 8.47C36.26 6.93 35.42 6.08 33.54 6.08C31.77 6.08 30.79 6.96 30.79 8.37C30.79 10.07 31.79 10.53 33.29 10.78C34.44 10.98 35.08 11.24 35.08 12.28C35.08 13.17 34.55 13.61 33.52 13.61C32.30 13.61 31.84 13.10 31.84 12.21L30.60 12.21C30.60 13.85 31.54 14.71 33.46 14.71C35.35 14.71 36.39 13.79 36.39 12.19C36.39 10.35 35.03 9.91 33.61 9.67ZM40.56 9.67C39.45 9.48 38.99 9.23 38.99 8.32C38.99 7.62 39.42 7.18 40.46 7.18C41.57 7.18 41.97 7.63 42 8.47L43.20 8.47C43.20 6.93 42.36 6.08 40.49 6.08C38.71 6.08 37.73 6.96 37.73 8.37C37.73 10.07 38.74 10.53 40.24 10.78C41.38 10.98 42.03 11.24 42.03 12.28C42.03 13.17 41.50 13.61 40.46 13.61C39.24 13.61 38.78 13.10 38.78 12.21L37.55 12.21C37.55 13.85 38.49 14.71 40.40 14.71C42.29 14.71 43.33 13.79 43.33 12.19C43.33 10.35 41.97 9.91 40.56 9.67ZM54.95 14.55L56.50 14.55L58.70 3.88L57.26 3.88L55.68 12.70L53.97 4.16L52.56 4.16L50.81 12.77L49.24 3.88L47.77 3.88L49.97 14.55L51.51 14.55L53.23 6.23ZM63.74 14.55L64.89 14.55L64.89 8.83C64.89 6.79 63.90 6.08 62.20 6.08C60.31 6.08 59.40 6.90 59.40 8.79L60.58 8.79C60.58 7.53 61.14 7.14 62.15 7.14C63.20 7.14 63.66 7.67 63.66 8.90L63.66 9.93C63.27 9.87 62.69 9.83 62.31 9.83C60.09 9.83 59.15 10.64 59.15 12.38C59.15 13.94 60.09 14.71 61.59 14.71C62.47 14.71 63.25 14.43 63.70 13.78ZM63.66 11.80C63.66 13.03 62.82 13.65 61.87 13.65C60.91 13.65 60.44 13.19 60.44 12.26C60.44 11.28 60.94 10.81 62.36 10.81C62.69 10.81 63.28 10.85 63.66 10.91ZM66.75 6.24L66.75 14.55L68.04 14.55L68.04 9.38C68.04 8.02 68.85 7.41 69.87 7.41C70.08 7.41 70.24 7.42 70.39 7.45L70.39 6.12C70.28 6.10 70.13 6.09 69.99 6.09C69.06 6.09 68.32 6.62 67.98 7.22L67.87 6.24ZM71.67 6.24L71.67 14.55L72.95 14.55L72.95 9.38C72.95 8.02 73.77 7.41 74.79 7.41C75.00 7.41 75.15 7.42 75.31 7.45L75.31 6.12C75.19 6.10 75.04 6.09 74.90 6.09C73.98 6.09 73.23 6.62 72.90 7.22L72.79 6.24ZM77.87 6.24L76.58 6.24L76.58 14.55L77.87 14.55ZM77.88 3.35L76.57 3.35L76.57 4.70L77.88 4.70ZM80.92 9.28C80.92 7.67 81.33 7.21 82.54 7.21C83.75 7.21 84.15 7.67 84.15 9.28L84.15 11.51C84.15 13.12 83.75 13.58 82.54 13.58C81.33 13.58 80.92 13.12 80.92 11.51ZM82.54 6.08C80.54 6.08 79.63 6.93 79.63 9.27L79.63 11.52C79.63 13.86 80.54 14.71 82.54 14.71C84.55 14.71 85.46 13.86 85.46 11.52L85.46 9.27C85.46 6.93 84.55 6.08 82.54 6.08ZM87.22 6.24L87.22 14.55L88.51 14.55L88.51 9.38C88.51 8.02 89.32 7.41 90.34 7.41C90.55 7.41 90.71 7.42 90.86 7.45L90.86 6.12C90.75 6.10 90.59 6.09 90.45 6.09C89.53 6.09 88.79 6.62 88.45 7.22L88.34 6.24Z"></path></g><!----><!----></svg>